HIERARCHY
ROOT SpineBase
{
  OFFSET 0.000000 0.000000 0.000000
  CHANNELS 6 Xposition Yposition Zposition Zrotation Xrotation Yrotation
  JOINT SpineMid
  {
    OFFSET -0.000000 29.570343 0.000000
    CHANNELS 3 Zrotation Xrotation Yrotation
    JOINT SpineShoulder
    {
      OFFSET -0.240027 21.954940 -0.837742
      CHANNELS 3 Zrotation Xrotation Yrotation
      JOINT Neck
      {
        OFFSET -0.091101 7.291658 -0.627360
        CHANNELS 3 Zrotation Xrotation Yrotation
        JOINT Head
        {
          OFFSET 2.308532 14.235143 -0.137536
          CHANNELS 3 Zrotation Xrotation Yrotation
          End Site
          {
            OFFSET 0 0 0
          }
        }
      }
      JOINT ShoulderLeft
      {
        OFFSET -5.491690 -0.889455 -6.295148
        CHANNELS 3 Zrotation Xrotation Yrotation
        JOINT ElbowLeft
        {
          OFFSET -2.626559 -26.764494 -7.902942
          CHANNELS 3 Zrotation Xrotation Yrotation
          JOINT WristLeft
          {
            OFFSET -1.443899 -16.999515 -13.467667
            CHANNELS 3 Zrotation Xrotation Yrotation
            JOINT HandLeft
            {
              OFFSET -0.508003 -5.733874 -4.093660
              CHANNELS 3 Zrotation Xrotation Yrotation
              JOINT HandTipLeft
              {
                OFFSET 0.119928 -2.311475 -0.874720
                CHANNELS 3 Zrotation Xrotation Yrotation
                End Site
                {
                  OFFSET 0 0 0
                }
              }
              JOINT ThumbLeft
              {
                OFFSET 1.823426 -1.442694 -4.010323
                CHANNELS 3 Zrotation Xrotation Yrotation
                End Site
                {
                  OFFSET 0 0 0
                }
              }
            }
          }
        }
      }
      JOINT ShoulderRight
      {
        OFFSET 14.740681 -2.206695 5.756329
        CHANNELS 3 Zrotation Xrotation Yrotation
        JOINT ElbowRight
        {
          OFFSET 2.401373 -28.423350 0.522588
          CHANNELS 3 Zrotation Xrotation Yrotation
          JOINT WristRight
          {
            OFFSET 0.262896 -26.178774 -8.896037
            CHANNELS 3 Zrotation Xrotation Yrotation
            JOINT HandRight
            {
              OFFSET -1.726118 -3.275545 -0.215776
              CHANNELS 3 Zrotation Xrotation Yrotation
              JOINT HandTipRight
              {
                OFFSET 0.423844 -4.039023 -1.679135
                CHANNELS 3 Zrotation Xrotation Yrotation
                End Site
                {
                  OFFSET 0 0 0
                }
              }
              JOINT ThumbRight
              {
                OFFSET 3.874526 0.695318 -1.307378
                CHANNELS 3 Zrotation Xrotation Yrotation
                End Site
                {
                  OFFSET 0 0 0
                }
              }
            }
          }
        }
      }
    }
  }
  JOINT HipLeft
  {
    OFFSET -6.750973 2.438922 -5.546030
    CHANNELS 3 Zrotation Xrotation Yrotation
    JOINT KneeLeft
    {
      OFFSET -5.922492 -38.761426 5.215983
      CHANNELS 3 Zrotation Xrotation Yrotation
      JOINT AnkleLeft
      {
        OFFSET -10.602987 -26.569509 -0.156955
        CHANNELS 3 Zrotation Xrotation Yrotation
        JOINT FootLeft
        {
          OFFSET 7.299105 -11.521601 -0.370368
          CHANNELS 3 Zrotation Xrotation Yrotation
          End Site
          {
            OFFSET 0 0 0
          }
        }
      }
    }
  }
  JOINT HipRight
  {
    OFFSET 7.027603 -0.772817 -1.618882
    CHANNELS 3 Zrotation Xrotation Yrotation
    JOINT KneeRight
    {
      OFFSET -8.160267 -33.926156 4.418543
      CHANNELS 3 Zrotation Xrotation Yrotation
      JOINT AnkleRight
      {
        OFFSET -7.300992 -34.779398 4.691920
        CHANNELS 3 Zrotation Xrotation Yrotation
        JOINT FootRight
        {
          OFFSET 2.300238 -7.987384 -6.997433
          CHANNELS 3 Zrotation Xrotation Yrotation
          End Site
          {
            OFFSET 0 0 0
          }
        }
      }
    }
  }
}
MOTION
Frames: 13
Frame Time: 0.033333
-14.199656 79.521424 351.477095 0.000000 0.000000 -15.908529 -0.000000 0.000000 15.908529 -0.000000 0.000000 0.000000 -0.000000 0.000000 0.000000 0.000000 0.000000 0.000000 -0.000000 0.000000 0.000000 -0.000000 0.000000 0.000000 -0.000000 0.000000 0.000000 -0.000000 0.000000 0.000000 0.000000 0.000000 0.000000 0.000000 0.000000 0.000000 -0.000000 0.000000 0.000000 -0.000000 0.000000 0.000000 -0.000000 0.000000 0.000000 -0.000000 0.000000 0.000000 0.000000 0.000000 0.000000 0.000000 0.000000 0.000000 -0.000000 0.000000 15.908529 -0.000000 0.000000 0.000000 -0.000000 0.000000 0.000000 0.000000 0.000000 0.000000 -0.000000 0.000000 15.908529 -0.000000 0.000000 0.000000 -0.000000 0.000000 0.000000 0.000000 0.000000 0.000000
-14.242500 79.524741 351.375656 0.040342 0.040030 -16.267829 -0.027513 -0.049728 16.267803 -0.000000 0.000000 0.000000 -0.000000 0.000000 0.000000 0.000000 0.000000 0.000000 -0.000000 0.000000 0.000000 -0.000000 0.000000 0.000000 -0.000000 0.000000 0.000000 -0.000000 0.000000 0.000000 0.000000 0.000000 0.000000 0.000000 0.000000 0.000000 -0.000000 0.000000 0.000000 -0.000000 0.000000 0.000000 2.020460 3.160876 -1.868781 -3.561970 -7.280113 1.922731 0.000000 0.000000 0.000000 0.000000 0.000000 0.000000 -0.027513 -0.049728 16.267803 0.866514 -0.916228 0.368581 3.754564 14.247702 7.157251 0.000000 0.000000 0.000000 -0.027513 -0.049728 16.267803 -0.000000 0.000000 0.000000 -5.477552 -1.585471 4.381242 0.000000 0.000000 0.000000
-14.288367 79.519843 351.276028 0.072943 0.081704 -16.630691 -0.046508 -0.099163 16.630598 -0.000000 0.000000 0.000000 -0.000000 0.000000 0.000000 0.000000 0.000000 0.000000 0.197133 0.901115 -0.147874 -0.194831 -0.901616 0.144791 -0.000000 0.000000 0.000000 -0.000000 0.000000 0.000000 0.000000 0.000000 0.000000 0.000000 0.000000 0.000000 -0.000000 0.000000 0.000000 -0.000000 0.000000 0.000000 3.649709 5.349553 -3.276222 -6.111563 -12.431007 3.087692 0.000000 0.000000 0.000000 0.000000 0.000000 0.000000 -0.046508 -0.099163 16.630598 1.550753 -1.634779 0.669056 7.468723 31.228355 14.723689 0.000000 0.000000 0.000000 -0.046508 -0.099163 16.630598 -0.000000 0.000000 0.000000 -9.453894 -2.368465 7.736010 0.000000 0.000000 0.000000
-14.337257 79.506729 351.178211 0.097812 0.125008 -16.996815 -0.056997 -0.148140 16.996635 -0.000000 0.000000 0.000000 -0.000000 0.000000 0.000000 0.000000 0.000000 0.000000 0.078412 1.600745 -0.180617 -0.073395 -1.600983 0.178496 -0.000000 0.000000 0.000000 -0.000000 0.000000 0.000000 0.000000 0.000000 0.000000 0.000000 0.000000 0.000000 -0.000000 0.000000 0.000000 -0.000000 0.000000 0.000000 4.966321 6.838817 -4.312005 -8.067384 -16.000307 3.815685 0.000000 0.000000 0.000000 0.000000 0.000000 0.000000 -0.056997 -0.148140 16.996635 2.049210 -2.157882 0.894194 10.604302 46.012404 20.588736 0.000000 0.000000 0.000000 -0.056997 -0.148140 16.996635 -0.000000 0.000000 0.000000 -11.913250 -2.074647 10.099103 0.000000 0.000000 0.000000
-14.389172 79.485400 351.082204 0.114958 0.169926 -17.365906 -0.059000 -0.196492 17.365634 -0.000000 0.000000 0.000000 -0.000000 0.000000 0.000000 0.000000 0.000000 0.000000 -0.200876 2.486856 -0.179234 0.208848 -2.486200 0.188126 -0.000000 0.000000 0.000000 -0.000000 0.000000 0.000000 0.000000 0.000000 0.000000 0.000000 0.000000 0.000000 -0.000000 0.000000 0.000000 0.475099 0.715036 -0.156893 5.529574 7.107677 -4.815719 -9.648750 -18.353596 4.270177 0.000000 0.000000 0.000000 0.000000 0.000000 0.000000 -0.059000 -0.196492 17.365634 2.359483 -2.487619 1.038818 14.347462 54.861036 22.655155 0.000000 0.000000 0.000000 -0.059000 -0.196492 17.365634 -0.000000 0.000000 0.000000 -12.911463 -0.563542 11.520794 0.000000 0.000000 0.000000
-14.444110 79.455856 350.988008 0.124398 0.216441 -17.737666 -0.052544 -0.244050 17.737319 -0.000000 0.000000 0.000000 -0.000000 0.000000 0.000000 0.000000 0.000000 0.000000 -0.656303 3.577890 -0.135615 0.666062 -3.576088 0.176906 -0.000000 0.000000 0.000000 -0.000000 0.000000 0.000000 0.000000 0.000000 0.000000 0.000000 0.000000 0.000000 -0.000000 0.000000 0.000000 0.618059 0.952796 -0.205010 6.239810 7.433777 -5.206173 -10.979802 -19.728009 4.543623 0.000000 0.000000 0.000000 0.000000 0.000000 0.000000 -0.052544 -0.244050 17.737319 2.480083 -2.625444 1.099712 19.981168 56.929405 20.018107 0.000000 0.000000 0.000000 -0.052544 -0.244050 17.737319 -0.000000 0.000000 0.000000 -12.476685 2.210163 11.983424 0.000000 0.000000 0.000000
-14.438013 79.394069 350.922443 0.197342 0.236394 -18.219993 -0.113537 -0.286244 18.219302 -0.000000 0.000000 0.000000 -0.000000 0.000000 0.000000 0.000000 0.000000 0.000000 -1.797009 5.743886 0.055751 1.800468 -5.742806 0.124721 -0.000000 0.000000 0.000000 -0.000000 0.000000 0.000000 0.000000 0.000000 0.000000 0.000000 0.000000 0.000000 -0.000000 0.000000 0.000000 0.761627 1.311580 -0.253362 6.900321 7.523023 -5.508613 -11.985212 -21.554741 4.623678 0.000000 0.000000 0.000000 0.000000 0.000000 0.000000 -1.044401 -0.716544 18.092243 3.820589 -2.709191 1.307902 30.978053 48.980788 10.361873 0.000000 0.000000 0.000000 -0.113537 -0.286244 18.219302 -0.000000 0.000000 0.000000 -8.244115 9.587935 10.132985 0.000000 0.000000 0.000000
-14.507920 79.338452 350.822143 0.178472 0.305021 -18.674005 -0.071416 -0.346107 18.673314 -0.000000 0.000000 0.000000 -0.000000 0.000000 0.000000 0.000000 0.000000 0.000000 -2.807895 7.613371 0.262113 3.249362 -6.690136 -0.265459 0.015485 0.055540 0.015278 -0.459044 -0.984599 0.413411 0.000000 0.000000 0.000000 0.000000 0.000000 0.000000 -0.000000 0.000000 0.000000 0.964707 1.564871 -0.323762 7.781496 7.138549 -5.484471 -13.354190 -19.084537 4.906828 0.000000 0.000000 0.000000 0.000000 0.000000 0.000000 -1.107742 -0.837650 18.530015 3.763922 -2.167225 1.093061 34.088518 27.991973 3.659565 0.000000 0.000000 0.000000 -0.071416 -0.346107 18.673314 -0.000000 0.000000 0.000000 -5.828614 13.867070 8.987271 0.000000 0.000000 0.000000
-14.604397 79.302179 350.721461 0.128306 0.361838 -18.964612 -0.003751 -0.383894 18.964195 -0.000000 0.000000 0.000000 -0.000000 0.000000 0.000000 0.000000 0.000000 0.000000 -3.554411 8.930445 0.437920 4.095566 -7.754438 -0.344920 0.020024 0.067195 0.018606 -0.572838 -1.256633 0.517855 0.000000 0.000000 0.000000 0.000000 0.000000 0.000000 -0.000000 0.000000 0.000000 1.186436 1.750072 -0.401605 8.038393 6.355400 -5.073421 -15.027890 -19.200512 4.756651 0.000000 0.000000 0.000000 0.000000 0.000000 0.000000 -1.155875 -0.809178 18.791516 3.281226 -1.942371 0.978425 27.844756 16.892314 2.412201 0.000000 0.000000 0.000000 -0.003751 -0.383894 18.964195 -0.000000 0.000000 0.000000 -8.172386 12.923181 10.939972 0.000000 0.000000 0.000000
-14.730631 79.290664 350.627115 0.050591 0.393420 -19.125903 0.081105 -0.388280 19.126004 -0.000000 0.000000 0.000000 -0.000000 0.000000 0.000000 0.000000 0.000000 0.000000 -3.932408 9.387265 0.546215 4.499468 -8.129422 -0.389283 0.020915 0.071335 0.020008 -0.608678 -1.348662 0.551263 0.000000 0.000000 0.000000 0.000000 0.000000 0.000000 -0.000000 0.000000 0.000000 1.353278 2.035158 -0.460651 8.013017 5.566821 -4.675085 -15.997222 -18.778340 4.681150 0.000000 0.000000 0.000000 0.000000 0.000000 0.000000 -1.195593 -0.608301 18.911043 3.267523 -1.941190 0.932239 18.065943 1.124156 -1.936096 0.000000 0.000000 0.000000 0.081105 -0.388280 19.126004 -0.000000 0.000000 0.000000 -7.580732 13.319115 10.486020 0.000000 0.000000 0.000000
-14.843561 79.284498 350.550631 -0.014519 0.414776 -19.159667 0.149847 -0.387035 19.160226 -0.587565 0.581345 -0.040329 0.588004 -0.580900 0.046291 0.000000 0.000000 0.000000 -3.169959 8.214024 0.528403 4.283693 -7.622172 -0.403635 0.018466 0.067145 0.019344 -0.566888 -1.260812 0.514009 0.000000 0.000000 0.000000 0.000000 0.000000 0.000000 0.588004 -0.580900 0.046291 1.644022 2.122117 -0.564208 7.878764 6.028102 -4.931071 -17.087453 -16.789531 5.448790 0.000000 0.000000 0.000000 0.000000 0.000000 0.000000 -1.285445 -0.317414 18.890309 3.419256 -2.063474 0.922599 4.261959 -3.522591 -3.752996 0.000000 0.000000 0.000000 0.610996 0.279549 19.130783 -0.654152 -0.478628 0.027143 -0.938111 17.208569 5.267204 0.000000 0.000000 0.000000
-14.977862 79.337547 350.498386 -0.128803 0.410746 -18.882983 -0.505985 -0.063906 18.863132 -0.033346 0.079390 -0.030866 0.662098 -0.592844 0.052957 0.000000 0.000000 0.000000 -2.982133 8.017647 0.506094 4.054256 -7.696121 -0.307604 0.011445 0.059626 0.017094 -0.447027 -0.992293 0.405564 0.000000 0.000000 0.000000 0.000000 0.000000 0.000000 0.662098 -0.592844 0.052957 1.905624 2.374114 -0.658517 7.563294 6.561236 -5.298505 -15.718406 -17.069417 5.571694 0.000000 0.000000 0.000000 0.000000 0.000000 0.000000 -1.306416 0.169682 18.553799 3.636930 -2.577915 1.044211 5.066342 -6.863756 -5.645467 0.000000 0.000000 0.000000 1.002638 0.712858 18.835533 -1.301245 -1.662693 0.188948 1.637339 20.143769 3.468616 0.000000 0.000000 0.000000
-15.038194 79.340699 350.430412 -0.118836 0.446895 -18.558134 -0.523815 -0.092386 18.537347 -0.044622 0.075332 -0.032724 0.689986 -0.600725 0.055448 0.000000 0.000000 0.000000 -1.821412 6.854178 0.196862 2.506916 -7.456934 0.159274 -0.000000 0.000000 0.000000 -0.000000 0.000000 0.000000 0.000000 0.000000 0.000000 0.000000 0.000000 0.000000 0.689986 -0.600725 0.055448 1.948690 2.569000 -0.674895 7.639062 7.104520 -5.740670 -15.156852 -17.977735 5.733502 0.000000 0.000000 0.000000 0.000000 0.000000 0.000000 -1.541603 0.515130 18.153078 4.160830 -3.420380 1.342325 9.609452 -4.550407 -4.709586 0.000000 0.000000 0.000000 1.157827 1.017327 18.472967 -1.667964 -2.225966 0.257056 1.322897 20.051978 3.749148 0.000000 0.000000 0.000000
